<svg width="23" height="25" viewBox="0 0 23 25" fill="none" xmlns="http://www.w3.org/2000/svg">
<path fill-rule="evenodd" clip-rule="evenodd" d="M2.42536 2.40201H20.5746C21.9087 2.40201 23 3.49327 23 4.82737V22.0183C23 23.3524 21.9087 24.4436 20.5746 24.4436H2.42536C1.09126 24.4432 0 23.3519 0 22.0183V4.82737C0 3.49327 1.09126 2.40201 2.42536 2.40201Z" fill="#607B54" fill-opacity="0.22"/>
<path fill-rule="evenodd" clip-rule="evenodd" d="M2.42536 2.40201H20.5746C21.9087 2.40201 23 3.49327 23 4.82737V6.3186H0V4.82737C0 3.49327 1.09126 2.40201 2.42536 2.40201Z" fill="#607B54"/>
<path fill-rule="evenodd" clip-rule="evenodd" d="M6.75193 5.34328C7.29994 5.34328 7.74666 4.89656 7.74666 4.34855C7.74666 3.80053 7.29951 3.35425 6.75193 3.35425C6.20435 3.35425 5.7572 3.80097 5.7572 4.34898C5.7572 4.89699 6.20392 5.34328 6.75193 5.34328Z" fill="#212121"/>
<path fill-rule="evenodd" clip-rule="evenodd" d="M16.2341 5.34334C16.7821 5.34334 17.2288 4.89662 17.2288 4.34861C17.2288 3.8006 16.7821 3.35431 16.2341 3.35431C15.6861 3.35431 15.2394 3.80103 15.2394 4.34904C15.2394 4.89705 15.6865 5.34334 16.2341 5.34334Z" fill="#212121"/>
<path fill-rule="evenodd" clip-rule="evenodd" d="M6.77301 0.324219C7.09377 0.324219 7.35609 0.586537 7.35609 0.907292V3.87244C7.35609 4.19319 7.09377 4.45551 6.77301 4.45551C6.45226 4.45551 6.18994 4.19319 6.18994 3.87244V0.907292C6.18994 0.586537 6.45226 0.324219 6.77301 0.324219Z" fill="#88A1A8"/>
<path fill-rule="evenodd" clip-rule="evenodd" d="M16.2529 0.324219C16.5736 0.324219 16.8359 0.586537 16.8359 0.907292V3.87244C16.8359 4.19319 16.5736 4.45551 16.2529 4.45551C15.9321 4.45551 15.6698 4.19319 15.6698 3.87244V0.907292C15.6698 0.586537 15.9321 0.324219 16.2529 0.324219Z" fill="#88A1A8"/>
</svg>
